<svg width="50mm" height="50mm" version="1.1" viewBox="0 0 50 50" xmlns="http://www.w3.org/2000/svg">
 <defs>
  <linearGradient id="linearGradient65" x1=".104" x2="94.5" y1="28.5" y2="28.5" gradientTransform="matrix(.265 0 0 .278 -5.13 -13.2)" gradientUnits="userSpaceOnUse">
   <stop stop-color="#eed7f4" stop-opacity=".188" offset="0"/>
  </linearGradient>
 </defs>
 <g id="id-icon-grid" stroke="#35af18">
  <rect x="-.0267" y=".0914" width="50" height="50" fill="#cbcebe" stroke-width=".1"/>
  <g fill="#f4e3d7" fill-opacity=".68" stroke-width=".129">
   <path d="m0 0.0647h50"/>
   <path d="m0 10.1h50"/>
   <path d="m0 20.1h50"/>
   <path d="m0 30.1h50"/>
   <path d="m0 40.1h50"/>
   <path d="m0 50.1h50"/>
   <path d="m50 0.0914v50"/>
   <path d="m40 0.0914v50"/>
   <path d="m30 0.0914v50"/>
   <path d="m20 0.0914v50"/>
   <path d="m9.98 0.0914v50"/>
   <path d="m-0.0267 0.0914v50"/>
  </g>
  <g fill="none" stroke-width=".1">
   <rect x="1.13" y="1.13" width="7.73" height="7.73" opacity=".2"/>
   <rect x="11.1" y="1.13" width="7.73" height="7.73" opacity=".2"/>
   <rect x="21.1" y="1.13" width="7.73" height="7.73" opacity=".2"/>
   <rect x="31.1" y="1.13" width="7.73" height="7.73" opacity=".2"/>
   <rect x="41.1" y="1.13" width="7.73" height="7.73" opacity=".2"/>
  </g>
  <g transform="translate(0 9.92)" fill="none" stroke-width=".1">
   <rect x="1.13" y="1.13" width="7.73" height="7.73" opacity=".2"/>
   <rect x="11.1" y="1.13" width="7.73" height="7.73" opacity=".2"/>
   <rect x="21.1" y="1.13" width="7.73" height="7.73" opacity=".2"/>
   <rect x="31.1" y="1.13" width="7.73" height="7.73" opacity=".2"/>
   <rect x="41.1" y="1.13" width="7.73" height="7.73" opacity=".2"/>
  </g>
  <g transform="translate(0 19.9)" fill="none" stroke-width=".1">
   <rect x="1.13" y="1.13" width="7.73" height="7.73" opacity=".2"/>
   <rect x="11.1" y="1.13" width="7.73" height="7.73" opacity=".2"/>
   <rect x="21.1" y="1.13" width="7.73" height="7.73" opacity=".2"/>
   <rect x="31.1" y="1.13" width="7.73" height="7.73" opacity=".2"/>
   <rect x="41.1" y="1.13" width="7.73" height="7.73" opacity=".2"/>
  </g>
  <g transform="translate(0 29.9)" fill="none" stroke-width=".1">
   <rect x="1.13" y="1.13" width="7.73" height="7.73" opacity=".2"/>
   <rect x="11.1" y="1.13" width="7.73" height="7.73" opacity=".2"/>
   <rect x="21.1" y="1.13" width="7.73" height="7.73" opacity=".2"/>
   <rect x="31.1" y="1.13" width="7.73" height="7.73" opacity=".2"/>
   <rect x="41.1" y="1.13" width="7.73" height="7.73" opacity=".2"/>
  </g>
  <g transform="translate(0 39.9)" fill="none" stroke-width=".1">
   <rect x="1.13" y="1.13" width="7.73" height="7.73" opacity=".2"/>
   <rect x="11.1" y="1.13" width="7.73" height="7.73" opacity=".2"/>
   <rect x="21.1" y="1.13" width="7.73" height="7.73" opacity=".2"/>
   <rect x="31.1" y="1.13" width="7.73" height="7.73" opacity=".2"/>
   <rect x="41.1" y="1.13" width="7.73" height="7.73" opacity=".2"/>
  </g>
 </g>
 <path id="share-divider" d="m-5.11-5.29h25" fill="url(#linearGradient65)" fill-opacity=".188" stroke="#fff" stroke-opacity=".258" stroke-width=".0598"/>
 <g id="id-icon-collection">
  <g id="icon-schedule">
   <rect id="icon-schedule-clickable" x=".0519" y=".143" width="9.85" height="9.85" fill="#1c0322" fill-opacity=".237" stroke="#d40055" stroke-dasharray="0.0452804, 0.181119" stroke-width=".028" style="mix-blend-mode:normal"/>
   <text id="txt-schedule" transform="scale(.976 1.02)" x="4.9840231" y="8.6497364" fill="#ffffff" font-family="'Devanagari Sangam MN'" font-size="1.03px" font-weight="bold" letter-spacing=".166px" stroke-linecap="round" stroke-miterlimit="4.1" stroke-width=".246" text-align="center" text-anchor="middle" word-spacing=".00945px" style="line-height:1.2;mix-blend-mode:normal" xml:space="preserve"><tspan x="5.0180807" y="8.6497364" fill="#ffffff" font-size="1.03px" stroke-width=".246">SCHEDULE</tspan></text>
   <g id="view-schedule-icon" transform="matrix(.774 0 0 .813 -16.2 -24.9)" fill="#fff" stroke-width=".929">
    <rect x="24.2" y="32.8" width="5.5" height="4.77" rx=".474" ry=".519"/>
    <circle id="icon-schedule-item-clockface-locked" cx="29.3" cy="37.9" r="1.5" stroke="#50614d" stroke-linejoin="round" stroke-miterlimit="4.1" stroke-width=".279"/>
   </g>
   <g id="icon-schedule-invert" transform="matrix(.774 0 0 .813 -16.2 -24.9)" stroke-width=".929">
    <g fill="#53614f">
     <rect x="24.9" y="34.8" width=".962" height=".811" rx=".193" ry=".156"/>
     <rect x="26.5" y="34.8" width=".962" height=".811" rx=".193" ry=".156"/>
     <rect x="28" y="34.8" width=".962" height=".811" rx=".193" ry=".156"/>
     <rect x="24.9" y="36.2" width=".962" height=".811" rx=".193" ry=".156"/>
     <rect x="26.5" y="36.2" width=".962" height=".811" rx=".193" ry=".156"/>
    </g>
    <path d="m23.9 34.1h5.98" fill="#fff" stroke="#50614d" stroke-linecap="round" stroke-linejoin="round" stroke-miterlimit="4.1" stroke-width=".279"/>
    <path d="m29.4 37v0.866h0.657" fill="none" stroke="#50614d" stroke-linecap="round" stroke-linejoin="round" stroke-miterlimit="4.1" stroke-width=".279"/>
    <rect x="25.1" y="32" width="1.16" height="1.5" rx=".41" ry=".339" fill="#53614f"/>
    <rect x="27.6" y="32" width="1.16" height="1.5" rx=".41" ry=".339" fill="#53614f"/>
    <circle id="icon-schedule-item-clockedge" cx="29.3" cy="37.9" r="1.5" fill="none" stroke="#818181" stroke-linejoin="round" stroke-miterlimit="4.1" stroke-width=".279"/>
   </g>
   <g fill="#fff">
    <rect transform="matrix(.774 0 0 .813 -16.2 -24.9)" x="25.4" y="32.3" width=".614" height=".956" rx=".193" ry=".156"/>
    <rect transform="matrix(.774 0 0 .813 -16.2 -24.9)" x="27.9" y="32.3" width=".614" height=".956" rx=".193" ry=".156"/>
   </g>
  </g>
  <g id="icon-home" stroke-miterlimit="4.1">
   <rect id="icon-home-clickable" x="10.1" y=".143" width="9.85" height="9.85" fill="#1c0322" fill-opacity=".237" stroke="#d40055" stroke-dasharray="0.0452804, 0.18112" stroke-width=".028" style="mix-blend-mode:normal"/>
   <text id="txt-home" transform="scale(.976 1.02)" x="15.256162" y="8.6497364" fill="#ffffff" font-family="'Devanagari Sangam MN'" font-size="1.03px" font-weight="bold" letter-spacing=".166px" stroke-linecap="round" stroke-width=".246" text-align="center" text-anchor="middle" word-spacing=".00945px" style="line-height:1.2;mix-blend-mode:normal" xml:space="preserve"><tspan x="15.290218" y="8.6497364" fill="#ffffff" font-size="1.03px" stroke-width=".246">HOME</tspan></text>
   <path id="view-home-icon" d="m14.9 1.12c-0.0403 0.00204-0.0792 0.0132-0.115 0.0344l-2.88 1.73c-0.142 0.085-0.17 0.298-0.0638 0.477l0.0202 0.034c0.106 0.179 0.306 0.255 0.448 0.17l0.182-0.109h0.021c-0.0059 0.0306-0.0106 0.0622-0.0106 0.0953v2.69c0 0.215 0.133 0.389 0.299 0.389h1.53v-1.88h1.37v1.88h1.56c0.165 0 0.299-0.173 0.299-0.389v-2.69c0-0.028-0.0028-0.0553-0.0072-0.0816l0.159 0.0953c0.142 0.085 0.341 0.00908 0.448-0.17l0.0202-0.034c0.106-0.179 0.0782-0.392-0.0634-0.477l-2.88-1.73c-0.0672-0.0403-0.147-0.0441-0.225-0.0181-0.0365-0.0123-0.0734-0.0181-0.11-0.0163z" fill="#fff" stroke-linejoin="round" stroke-width="1.08"/>
  </g>
  <g id="icon-status" transform="matrix(.459 0 0 .459 -10.7 -12.2)">
   <rect id="icon-status-clickable" x="66.9" y="26.7" width="21.6" height="21.8" fill="#1c0322" fill-opacity=".237" stroke="#d40055" stroke-dasharray="0.0441597, 0.176638" stroke-width=".0617"/>
   <text id="txt-status" x="77.424767" y="45.964653" fill="#ffffff" font-family="'Devanagari Sangam MN'" font-size="2.17px" font-weight="bold" letter-spacing=".166px" stroke-linecap="round" stroke-miterlimit="4.1" stroke-width=".516" text-align="center" text-anchor="middle" word-spacing=".00945px" style="line-height:1.2;mix-blend-mode:normal" xml:space="preserve"><tspan x="77.496277" y="45.964653" fill="#ffffff" font-size="2.17px" stroke-width=".516">STATUS</tspan></text>
   <g id="view-status-icon" transform="matrix(1.77 0 0 1.77 -59.3 -27.7)">
    <g fill="none" stroke="#fff" stroke-linecap="round" stroke-linejoin="round" stroke-miterlimit="4.1" stroke-width=".23">
     <path d="m74.5 35.6v-0.349h1.78v0.329"/>
     <path d="m78.7 35.6v-0.349h1.78v0.329"/>
     <path d="m75.4 35.2v-0.349h4.15v0.329"/>
    </g>
    <g fill="#fff">
     <rect x="73.9" y="35.7" width="1.24" height="3.21" rx="0" ry="0"/>
     <rect x="75.7" y="35.7" width="1.24" height="3.21" rx="0" ry="0"/>
     <rect x="78.1" y="35.7" width="1.24" height="3.21" rx="0" ry="0"/>
     <rect x="79.8" y="35.7" width="1.24" height="3.21" rx="0" ry="0"/>
    </g>
    <path d="m77.5 33.9v0.915" fill="none" stroke="#fff" stroke-linejoin="round" stroke-miterlimit="4.1" stroke-width=".23"/>
    <path transform="matrix(.864 -.218 .218 .864 3.64 21.8)" d="m78.6 32.9-0.835 0.484-0.0753 0.962-0.718-0.645-0.939 0.226 0.392-0.882-0.505-0.823 0.96 0.0999 0.627-0.734 0.202 0.944z" fill="#fff"/>
   </g>
  </g>
  <g id="icon-teammanager" transform="translate(4.95 -49.1)">
   <rect id="icon-teammanager-clickable" x="25.1" y="49.3" width="9.85" height="9.85" fill="#1c0322" fill-opacity=".237" stroke="#d40055" stroke-dasharray="0.0452804, 0.18112" stroke-miterlimit="4.1" stroke-width=".028" style="mix-blend-mode:normal"/>
   <text id="txt-team-manager" transform="scale(1.02 .976)" x="29.269943" y="58.286358" fill="#ffffff" font-family="'Devanagari Sangam MN'" font-size=".95px" font-weight="bold" letter-spacing=".147px" stroke-linecap="round" stroke-miterlimit="4.1" stroke-width=".256" text-align="center" text-anchor="middle" word-spacing=".00835px" style="line-height:1.2;mix-blend-mode:normal" xml:space="preserve"><tspan x="29.301289" y="58.286358"><tspan x="29.301289" y="58.286358" fill="#ffffff" font-size=".95px" stroke-width=".256">TEAM</tspan></tspan><tspan x="29.332636" y="59.426212">MANAGER</tspan></text>
   <path d="m28 55.6c-0.079-0.0477-0.029-1.58 0.057-1.75 0.0878-0.17 0.232-0.327 0.388-0.421 0.0934-0.0563 0.109-0.0767 0.0984-0.129-0.0158-0.0774 0.21-0.304 0.289-0.29 0.0835 0.0152 0.0738 0.115-0.0204 0.21-0.0824 0.0829-0.0832 0.0855-0.0214 0.0708 0.0353-0.0084 0.205-0.0154 0.378-0.0156 0.297-2.65e-4 0.314-0.0027 0.314-0.0492 0-0.0396-0.0171-0.0488-0.0908-0.0488-0.277 0-0.459-0.26-0.349-0.499 0.0878-0.189 0.154-0.211 0.606-0.204 0.385 0.0063 0.385 0.0063 0.392 0.192 0.0084 0.211 0.0056 0.215-0.193 0.277-0.22 0.0682-0.12 0.136 0.202 0.136 0.564 0 0.825-0.308 0.839-0.986 0.0109-0.553-0.0282-0.626-0.337-0.626-0.18 0-0.223-0.0163-0.223-0.0851 0-0.194 0.509-0.125 0.664 0.0892 0.16 0.222 0.252-0.0707 0.13-0.415-0.0622-0.175-0.054-0.224 0.0378-0.224 0.118 0 0.238 0.353 0.209 0.619-0.0128 0.12-0.0069 0.153 0.036 0.205 0.139 0.168-0.0099 0.527-0.242 0.582-0.0495 0.0118-0.0629 0.0386-0.086 0.171-0.0404 0.232-0.135 0.406-0.312 0.575-0.212 0.202-0.218 0.284-0.0201 0.295 0.185 0.0101 0.185 0.0473-0.0052 0.408-0.176 0.335-0.168 0.33-0.417 0.234-0.0868-0.0336-0.161-0.061-0.165-0.061-4e-3 0-0.0107 0.0785-0.0148 0.174-0.0135 0.312-0.181 0.312-0.195 0-0.0041-0.096-0.0108-0.174-0.0148-0.174s-0.0783 0.0274-0.165 0.061c-0.231 0.0892-0.248 0.0848-0.339-0.0859-0.0632-0.119-0.0726-0.156-0.0499-0.197 0.0422-0.0751 0.132-0.0505 0.185 0.0508 0.0507 0.0968 0.0487 0.0962 0.181 0.0522 0.119-0.0397 0.118-0.0435-0.0672-0.186-0.149-0.115-0.149-0.115-0.513-0.106-0.724 0.019-0.993 0.266-1.01 0.93-0.0102 0.336-0.0102 0.336 0.275 0.336 0.285 0 0.285 0 0.285-0.105 0-0.153 0.116-0.228 0.179-0.116 0.0847 0.151 0.0225 1.12-0.0718 1.12-0.0938 0-0.107-0.0484-0.107-0.396 0-0.337 0-0.337-0.282-0.337s-0.282 0-0.282 0.337c0 0.377-0.0279 0.448-0.149 0.375zm2.56-1.96c0.126-0.238 0.0825-0.262-0.149-0.0834-0.179 0.138-0.165 0.2 0.0526 0.227 0.0104 0.0013 0.0536-0.0632 0.0962-0.143zm-0.295-0.2c0.165-0.126 0.244-0.275 0.122-0.229-0.0247 0.0092-0.111 0.0281-0.192 0.0419-0.14 0.0239-0.363 0.0047-0.487-0.0419-0.13-0.0487-0.0414 0.105 0.14 0.242 0.209 0.158 0.194 0.158 0.418-0.0127zm-0.737-0.527c0.0519-0.0524 0.14-0.107 0.208-0.128 0.252-0.0796 0.183-0.147-0.149-0.147-0.326 0-0.386 0.0283-0.386 0.181 0 0.182 0.188 0.235 0.328 0.0941zm1.71-0.959c0.0701-0.129 0.0362-0.22-0.0818-0.22-0.056 0-0.059 0.0088-0.059 0.172 0 0.19 0.0537 0.209 0.141 0.0485zm-0.0373 3.61c-0.0847-0.151-0.0225-1.12 0.0718-1.12 0.0732 0 0.107 0.0515 0.107 0.164 0 0.105 0 0.105 0.285 0.105s0.285 0 0.275-0.324c-0.0157-0.55-0.226-0.832-0.691-0.923-0.209-0.041-0.27-0.194-0.0783-0.194 0.32 0 0.699 0.254 0.869 0.583 0.0998 0.193 0.128 1.72 0.0324 1.75-0.111 0.0335-0.128-0.0179-0.128-0.381 0-0.339 0-0.339-0.282-0.339s-0.282 0-0.282 0.337c0 0.347-0.0131 0.396-0.107 0.396-0.0249 0-0.0572-0.0213-0.0718-0.0472zm-1.04-0.702c-0.0442-0.0421-0.015-0.13 0.0482-0.145 0.0485-0.0116 0.088-0.0584 0.153-0.182 0.116-0.219 0.112-0.218 0.375-0.095 0.231 0.108 0.277 0.155 0.23 0.238-0.0176 0.0313-0.0172 0.0542 0.0011 0.0717 0.0148 0.0141 0.0193 0.0488 0.0099 0.077-0.0172 0.0516-0.766 0.0836-0.817 0.035zm0.598-0.187c0-0.026-0.149-0.114-0.193-0.114-0.0062 0-0.0292 0.033-0.0511 0.0732-0.0398 0.0732-0.0398 0.0732 0.102 0.0732 0.1 0 0.142-0.0094 0.142-0.0321zm-2.48-1.8c-0.0189-0.0114-0.0304-0.0469-0.0256-0.079 0.0117-0.079 0.437-0.0925 0.453-0.0144 0.0203 0.1-0.3 0.17-0.427 0.0934zm0.371-0.366c-0.127-0.123-0.143-0.183-0.0612-0.232 0.0368-0.0221 0.0664-6e-3 0.173 0.0941 0.131 0.123 0.165 0.214 0.0882 0.242-0.0649 0.0237-0.0706 0.0208-0.2-0.104zm1.81 0.0887c-0.0141-0.0168-0.0336-0.0552-0.0433-0.0854-0.0097-0.0302-0.0461-0.0617-0.0808-0.07-0.0878-0.021-0.125-0.0927-0.0727-0.142 0.103-0.0984 0.344 0.046 0.344 0.206 0 0.103-0.0907 0.159-0.148 0.091zm-1.43-0.276c-0.0222-0.0211-0.0403-0.0474-0.0403-0.0584 0-0.011-0.028-0.0267-0.0621-0.0349-0.236-0.0564-0.386-0.413-0.245-0.584 0.0434-0.0525 0.0491-0.0842 0.0353-0.196-0.0894-0.724 0.741-1.39 1.55-1.24 0.356 0.0637 0.754 0.287 0.739 0.415-0.0112 0.0924-0.084 0.097-0.196 0.0123-0.751-0.566-1.85-0.17-1.9 0.682-0.011 0.206 0.0492 0.343 0.0933 0.212 0.0344-0.102 0.223-0.236 0.356-0.254 0.163-0.0213 0.31-0.15 0.264-0.232-0.0903-0.161 0.077-0.506 0.235-0.485 0.0807 0.0109 0.0984 0.128 0.025 0.165-0.161 0.082-0.116 0.285 0.0926 0.416 0.233 0.146 0.163 0.288-0.0808 0.164-0.129-0.0656-0.129-0.0656-0.187 0.0051-0.0624 0.0759-0.225 0.15-0.33 0.15-0.157 0-0.191 0.0834-0.191 0.473 0 0.352-0.0187 0.43-0.103 0.43-0.0121 0-0.0401-0.0173-0.0623-0.0384zm-0.0403-0.427c0-0.172-9.5e-5 -0.173-0.0679-0.165-0.134 0.0152-0.145 0.161-0.0219 0.278 0.087 0.0828 0.0899 0.0792 0.0899-0.114zm0.411 0.0638c-0.0414-0.0474-0.0093-0.135 0.0494-0.135 0.0362 0 0.0461-0.0173 0.0432-0.076-0.0025-0.0493 0.0123-0.0857 0.0422-0.104 0.0708-0.0428 0.342 0.228 0.301 0.301-0.0356 0.0633-0.383 0.0746-0.435 0.0142zm0.845-0.0142c-0.0409-0.0727 0.23-0.344 0.301-0.301 0.0298 0.018 0.0446 0.0544 0.0422 0.104-0.0029 0.0587 0.0069 0.076 0.0432 0.076 0.0586 0 0.0907 0.088 0.0494 0.135-0.0527 0.0604-0.4 0.0491-0.435-0.0142zm0.0932-0.865c-0.126-0.0428-0.302-0.204-0.292-0.267 0.0153-0.0965 0.0889-0.105 0.18-0.0217 0.122 0.112 0.253 0.158 0.4 0.139 0.0931-0.0117 0.13-0.0065 0.155 0.0222 0.108 0.124-0.194 0.211-0.442 0.127z" fill="#fff" stroke-width=".774"/>
  </g>
  <g id="icon-move" transform="translate(-30.9 8.02)" stroke-miterlimit="4.1">
   <rect id="icon-move-clickable" x="30.9" y="2.14" width="9.85" height="9.85" fill="#1c0322" fill-opacity=".237" stroke="#d40055" stroke-dasharray="0.0452804, 0.18112" stroke-width=".028" style="mix-blend-mode:normal"/>
   <text x="35.80447" y="10.763562" fill="#ffffff" font-family="'Devanagari Sangam MN'" font-size="1.06px" font-weight="bold" letter-spacing=".147px" stroke-linecap="round" stroke-width=".285" text-align="center" text-anchor="middle" word-spacing=".00835px" style="line-height:1.2;mix-blend-mode:normal" xml:space="preserve"><tspan x="35.839375" y="10.763562" fill="#ffffff" font-size="1.06px" stroke-width=".285">MOVE</tspan></text>
   <g transform="matrix(.771 0 0 .771 1.17 .994)" fill="none" stroke="#fff" stroke-linecap="round" stroke-width=".8">
    <path d="m42.8 8.52c-0.573-0.573-0.928-1.36-0.928-2.24 0-1.75 1.42-3.17 3.17-3.17 1.75 1e-7 3.17 1.42 3.17 3.17s-1.42 3.17-3.17 3.17"/>
    <g stroke-linejoin="round">
     <path d="m45.9 7.1-1-0.731v-1.95"/>
     <path d="m42.7 8.67 0.445-1.33"/>
     <path d="m42.7 8.69-1.38-0.285"/>
    </g>
   </g>
  </g>
  <g id="icon-notplayed">
   <rect id="icon-notplayed-clickable" x="40.1" y=".143" width="9.85" height="9.85" fill="#1c0322" fill-opacity=".237" stroke="#d40055" stroke-dasharray="0.0452804, 0.18112" stroke-miterlimit="4.1" stroke-width=".028" style="mix-blend-mode:normal"/>
   <g transform="matrix(1.57 0 0 1.57 -32.6 -1.41)" fill="none" stroke="#fff" stroke-miterlimit="4.1">
    <circle cx="49.6" cy="3.38" r="1.6" stroke-width=".377"/>
    <path d="m50.7 2.32-2.33 2.13" stroke-linejoin="round" stroke-width=".613"/>
   </g>
   <text transform="scale(.95 1.05)" x="47.282143" y="8.4709778" fill="#ffffff" font-family="'Devanagari Sangam MN'" font-size="1.01px" font-weight="bold" letter-spacing=".147px" stroke-linecap="round" stroke-miterlimit="4.1" stroke-width=".271" text-align="center" text-anchor="middle" word-spacing=".00835px" style="line-height:1.2;mix-blend-mode:normal" xml:space="preserve"><tspan x="47.315311" y="8.4709778" fill="#ffffff" font-size="1.01px" stroke-width=".271">NOT PLAYED</tspan></text>
   <g id="icon-notplayed-invert" transform="matrix(1.57 0 0 1.57 -32.6 -1.41)">
    <circle cx="49.6" cy="3.38" r="1.36" fill="none" stroke="#f00" stroke-miterlimit="4.1" stroke-width=".103"/>
   </g>
  </g>
  <g id="icon-start" transform="translate(-.632 8.34)">
   <g stroke-miterlimit="4.1">
    <rect id="icon-start-clickable" x="10.7" y="1.82" width="9.85" height="9.85" fill="#1c0322" fill-opacity=".237" stroke="#d40055" stroke-dasharray="0.0452804, 0.18112" stroke-width=".028" style="mix-blend-mode:normal"/>
    <text x="15.562188" y="10.442361" fill="#ffffff" font-family="'Devanagari Sangam MN'" font-size="1.06px" font-weight="bold" letter-spacing=".0698px" stroke-linecap="round" stroke-width=".106" text-align="center" text-anchor="middle" word-spacing=".00397px" style="line-height:1.2" xml:space="preserve"><tspan x="15.597094" y="10.442361" fill="#ffffff" font-size="1.06px" stroke-width=".106">START</tspan></text>
    <g transform="matrix(.778 0 0 .778 3.46 .601)" fill="#fff" stroke-width=".5">
     <circle cx="15.6" cy="6.28" r="3.57" fill="#fff"/>
    </g>
   </g>
   <g id="icon-start-invert" transform="matrix(.778 0 0 .778 3.46 .601)" fill="none" stroke="#24221c" stroke-width=".614">
    <path d="m14.5 4.46 3 1.82-3 1.82z" fill="none" stroke="#24221c" stroke-linecap="round" stroke-linejoin="round" stroke-width=".614"/>
   </g>
  </g>
 </g>
</svg>
