<?xml version="1.0" encoding="UTF-8" standalone="no"?>
<!-- Created with Inkscape (http://www.inkscape.org/) -->

<svg
   width="50mm"
   height="50mm"
   viewBox="0 0 50 50"
   version="1.1"
   id="svg1"
   sodipodi:docname="icons.svg"
   inkscape:version="1.4 (e7c3feb100, 2024-10-09)"
   xmlns:inkscape="http://www.inkscape.org/namespaces/inkscape"
   xmlns:sodipodi="http://sodipodi.sourceforge.net/DTD/sodipodi-0.dtd"
   xmlns="http://www.w3.org/2000/svg"
   xmlns:svg="http://www.w3.org/2000/svg">
  <sodipodi:namedview
     id="namedview1"
     pagecolor="#ffffff"
     bordercolor="#000000"
     borderopacity="0.25"
     inkscape:showpageshadow="2"
     inkscape:pageopacity="0.0"
     inkscape:pagecheckerboard="0"
     inkscape:deskcolor="#d1d1d1"
     inkscape:document-units="mm"
     showguides="true"
     inkscape:zoom="4.9487518"
     inkscape:cx="99.419009"
     inkscape:cy="61.530667"
     inkscape:window-width="1920"
     inkscape:window-height="1011"
     inkscape:window-x="0"
     inkscape:window-y="32"
     inkscape:window-maximized="1"
     inkscape:current-layer="id-icon-collection"
     inkscape:lockguides="false">
    <sodipodi:guide
       position="4.9773289,41.134969"
       orientation="1,0"
       id="guide37"
       inkscape:locked="false" />
    <sodipodi:guide
       position="-2.4378299,43.311595"
       orientation="0,-1"
       id="guide38"
       inkscape:locked="false" />
    <sodipodi:guide
       position="4.9773289,7.8330523"
       orientation="1,0"
       id="guide39"
       inkscape:locked="false" />
    <sodipodi:guide
       position="44.988763,48.86503"
       orientation="1,0"
       id="guide1"
       inkscape:locked="false" />
    <sodipodi:guide
       position="16.183876,33.396565"
       orientation="0,-1"
       id="guide20"
       inkscape:locked="false" />
    <sodipodi:guide
       position="35.000001,41.134969"
       orientation="1,0"
       id="guide43"
       inkscape:locked="false" />
    <sodipodi:guide
       position="25,48.86503"
       orientation="1,0"
       id="guide44"
       inkscape:locked="false" />
  </sodipodi:namedview>
  <defs
     id="defs1">
    <linearGradient
       id="linearGradient65"
       x1="0.10393"
       x2="94.5"
       y1="28.492001"
       y2="28.492001"
       gradientUnits="userSpaceOnUse"
       gradientTransform="matrix(0.26458333,0,0,0.27791833,-5.1343087,-13.205464)">
      <stop
         stop-color="#eed7f4"
         stop-opacity=".18763"
         offset="0"
         id="stop3" />
    </linearGradient>
  </defs>
  <g
     inkscape:label="alignment grid"
     inkscape:groupmode="layer"
     id="id-icon-grid"
     sodipodi:insensitive="true">
    <rect
       style="opacity:1;fill:#cbcebe;fill-opacity:1;stroke:#35af18;stroke-width:0.1;stroke-dasharray:none"
       id="rect37"
       width="50"
       height="50"
       x="-0.026733747"
       y="0.091394253" />
    <path
       style="fill:#f4e3d7;fill-opacity:0.680412;stroke:#35af18;stroke-width:0.129321"
       d="M 0,0.0646605 H 50"
       id="path1" />
    <path
       style="fill:#f4e3d7;fill-opacity:0.680412;stroke:#35af18;stroke-width:0.129321"
       d="M 0,10.075 H 50"
       id="path2" />
    <path
       style="fill:#f4e3d7;fill-opacity:0.680412;stroke:#35af18;stroke-width:0.129321"
       d="M 0,20.085782 H 50"
       id="path3" />
    <path
       style="fill:#f4e3d7;fill-opacity:0.680412;stroke:#35af18;stroke-width:0.129321"
       d="M 0,30.096564 H 50"
       id="path4" />
    <path
       style="fill:#f4e3d7;fill-opacity:0.680412;stroke:#35af18;stroke-width:0.129321"
       d="M 0,40.107346 H 50"
       id="path5" />
    <path
       style="fill:#f4e3d7;fill-opacity:0.680412;stroke:#35af18;stroke-width:0.129321"
       d="M 0,50.118128 H 50"
       id="path6" />
    <path
       style="fill:#f4e3d7;fill-opacity:0.680412;stroke:#35af18;stroke-width:0.129321"
       d="M 50.026734,0.09139425 V 50.091394"
       id="path7" />
    <path
       style="fill:#f4e3d7;fill-opacity:0.680412;stroke:#35af18;stroke-width:0.129321"
       d="M 40.016394,0.09139425 V 50.091394"
       id="path8" />
    <path
       style="fill:#f4e3d7;fill-opacity:0.680412;stroke:#35af18;stroke-width:0.129321"
       d="M 30.005612,0.09139425 V 50.091394"
       id="path9" />
    <path
       style="fill:#f4e3d7;fill-opacity:0.680412;stroke:#35af18;stroke-width:0.129321"
       d="M 19.99483,0.09139425 V 50.091394"
       id="path10" />
    <path
       style="fill:#f4e3d7;fill-opacity:0.680412;stroke:#35af18;stroke-width:0.129321"
       d="M 9.9840483,0.09139425 V 50.091394"
       id="path11" />
    <path
       style="fill:#f4e3d7;fill-opacity:0.680412;stroke:#35af18;stroke-width:0.129321"
       d="M -0.02673375,0.09139425 V 50.091394"
       id="path12" />
    <g
       id="g16">
      <rect
         style="opacity:0.2;fill:none;fill-opacity:0.680412;stroke:#35af18;stroke-width:0.1;stroke-dasharray:none"
         id="rect12"
         width="7.7300611"
         height="7.7300611"
         x="1.1349695"
         y="1.1349695" />
      <rect
         style="opacity:0.2;fill:none;fill-opacity:0.680412;stroke:#35af18;stroke-width:0.1;stroke-dasharray:none"
         id="rect13"
         width="7.7300611"
         height="7.7300611"
         x="11.13497"
         y="1.1349695" />
      <rect
         style="opacity:0.2;fill:none;fill-opacity:0.680412;stroke:#35af18;stroke-width:0.1;stroke-dasharray:none"
         id="rect14"
         width="7.7300611"
         height="7.7300611"
         x="21.13497"
         y="1.1349695" />
      <rect
         style="opacity:0.2;fill:none;fill-opacity:0.680412;stroke:#35af18;stroke-width:0.1;stroke-dasharray:none"
         id="rect15"
         width="7.7300611"
         height="7.7300611"
         x="31.13497"
         y="1.1349695" />
      <rect
         style="opacity:0.2;fill:none;fill-opacity:0.680412;stroke:#35af18;stroke-width:0.1;stroke-dasharray:none"
         id="rect16"
         width="7.7300611"
         height="7.7300611"
         x="41.123734"
         y="1.1349695" />
    </g>
    <g
       id="g21"
       transform="translate(0,9.9150305)">
      <rect
         style="opacity:0.2;fill:none;fill-opacity:0.680412;stroke:#35af18;stroke-width:0.1;stroke-dasharray:none"
         id="rect17"
         width="7.7300611"
         height="7.7300611"
         x="1.1349695"
         y="1.1349695" />
      <rect
         style="opacity:0.2;fill:none;fill-opacity:0.680412;stroke:#35af18;stroke-width:0.1;stroke-dasharray:none"
         id="rect18"
         width="7.7300611"
         height="7.7300611"
         x="11.13497"
         y="1.1349695" />
      <rect
         style="opacity:0.2;fill:none;fill-opacity:0.680412;stroke:#35af18;stroke-width:0.1;stroke-dasharray:none"
         id="rect19"
         width="7.7300611"
         height="7.7300611"
         x="21.13497"
         y="1.1349695" />
      <rect
         style="opacity:0.2;fill:none;fill-opacity:0.680412;stroke:#35af18;stroke-width:0.1;stroke-dasharray:none"
         id="rect20"
         width="7.7300611"
         height="7.7300611"
         x="31.13497"
         y="1.1349695" />
      <rect
         style="opacity:0.2;fill:none;fill-opacity:0.680412;stroke:#35af18;stroke-width:0.1;stroke-dasharray:none"
         id="rect21"
         width="7.7300611"
         height="7.7300611"
         x="41.123734"
         y="1.1349695" />
    </g>
    <g
       id="g26"
       transform="translate(0,19.915031)">
      <rect
         style="opacity:0.2;fill:none;fill-opacity:0.680412;stroke:#35af18;stroke-width:0.1;stroke-dasharray:none"
         id="rect22"
         width="7.7300611"
         height="7.7300611"
         x="1.1349695"
         y="1.1349695" />
      <rect
         style="opacity:0.2;fill:none;fill-opacity:0.680412;stroke:#35af18;stroke-width:0.1;stroke-dasharray:none"
         id="rect23"
         width="7.7300611"
         height="7.7300611"
         x="11.13497"
         y="1.1349695" />
      <rect
         style="opacity:0.2;fill:none;fill-opacity:0.680412;stroke:#35af18;stroke-width:0.1;stroke-dasharray:none"
         id="rect24"
         width="7.7300611"
         height="7.7300611"
         x="21.13497"
         y="1.1349695" />
      <rect
         style="opacity:0.2;fill:none;fill-opacity:0.680412;stroke:#35af18;stroke-width:0.1;stroke-dasharray:none"
         id="rect25"
         width="7.7300611"
         height="7.7300611"
         x="31.13497"
         y="1.1349695" />
      <rect
         style="opacity:0.2;fill:none;fill-opacity:0.680412;stroke:#35af18;stroke-width:0.1;stroke-dasharray:none"
         id="rect26"
         width="7.7300611"
         height="7.7300611"
         x="41.123734"
         y="1.1349695" />
    </g>
    <g
       id="g31"
       transform="translate(0,29.915031)">
      <rect
         style="opacity:0.2;fill:none;fill-opacity:0.680412;stroke:#35af18;stroke-width:0.1;stroke-dasharray:none"
         id="rect27"
         width="7.7300611"
         height="7.7300611"
         x="1.1349695"
         y="1.1349695" />
      <rect
         style="opacity:0.2;fill:none;fill-opacity:0.680412;stroke:#35af18;stroke-width:0.1;stroke-dasharray:none"
         id="rect28"
         width="7.7300611"
         height="7.7300611"
         x="11.13497"
         y="1.1349695" />
      <rect
         style="opacity:0.2;fill:none;fill-opacity:0.680412;stroke:#35af18;stroke-width:0.1;stroke-dasharray:none"
         id="rect29"
         width="7.7300611"
         height="7.7300611"
         x="21.13497"
         y="1.1349695" />
      <rect
         style="opacity:0.2;fill:none;fill-opacity:0.680412;stroke:#35af18;stroke-width:0.1;stroke-dasharray:none"
         id="rect30"
         width="7.7300611"
         height="7.7300611"
         x="31.13497"
         y="1.1349695" />
      <rect
         style="opacity:0.2;fill:none;fill-opacity:0.680412;stroke:#35af18;stroke-width:0.1;stroke-dasharray:none"
         id="rect31"
         width="7.7300611"
         height="7.7300611"
         x="41.123734"
         y="1.1349695" />
    </g>
    <g
       id="g36"
       transform="translate(0,39.915031)">
      <rect
         style="opacity:0.2;fill:none;fill-opacity:0.680412;stroke:#35af18;stroke-width:0.1;stroke-dasharray:none"
         id="rect32"
         width="7.7300611"
         height="7.7300611"
         x="1.1349695"
         y="1.1349695" />
      <rect
         style="opacity:0.2;fill:none;fill-opacity:0.680412;stroke:#35af18;stroke-width:0.1;stroke-dasharray:none"
         id="rect33"
         width="7.7300611"
         height="7.7300611"
         x="11.13497"
         y="1.1349695" />
      <rect
         style="opacity:0.2;fill:none;fill-opacity:0.680412;stroke:#35af18;stroke-width:0.1;stroke-dasharray:none"
         id="rect34"
         width="7.7300611"
         height="7.7300611"
         x="21.13497"
         y="1.1349695" />
      <rect
         style="opacity:0.2;fill:none;fill-opacity:0.680412;stroke:#35af18;stroke-width:0.1;stroke-dasharray:none"
         id="rect35"
         width="7.7300611"
         height="7.7300611"
         x="31.13497"
         y="1.1349695" />
      <rect
         style="opacity:0.2;fill:none;fill-opacity:0.680412;stroke:#35af18;stroke-width:0.1;stroke-dasharray:none"
         id="rect36"
         width="7.7300611"
         height="7.7300611"
         x="41.123734"
         y="1.1349695" />
    </g>
  </g>
  <g
     inkscape:groupmode="layer"
     id="layer2"
     inkscape:label="standard">
    <path
       d="M -5.1068106,-5.2870148 H 19.868797"
       fill="url(#linearGradient65)"
       fill-opacity="0.18763"
       stroke="#ffffff"
       stroke-opacity="0.25773"
       stroke-width="0.0597955"
       id="share-divider"
       inkscape:label="shared-divder"
       style="fill:url(#linearGradient65)" />
  </g>
  <g
     inkscape:groupmode="layer"
     id="id-icon-collection"
     inkscape:label="icons">
    <g
       id="icon-schedule">
      <rect
         id="icon-schedule-clickable"
         x="0.051926807"
         y="0.14332105"
         width="9.8534603"
         height="9.8530188"
         fill="#f6d5ff"
         fill-opacity="0.15052"
         stroke="#d40055"
         stroke-dasharray="0.0452804, 0.181119"
         stroke-width="0.0280001"
         style="mix-blend-mode:normal;fill:#1c0322;fill-opacity:0.23725055" />
      <text
         x="4.9840231"
         y="8.6497364"
         fill="#ffffff"
         font-family="'Devanagari Sangam MN'"
         font-size="1.03203px"
         font-weight="bold"
         letter-spacing="0.16627px"
         stroke-linecap="round"
         stroke-miterlimit="4.1"
         stroke-width="0.2458"
         text-align="center"
         text-anchor="middle"
         word-spacing="0.0094471px"
         style="line-height:1.2;mix-blend-mode:normal"
         xml:space="preserve"
         id="txt-schedule"
         transform="scale(0.97571427,1.0248902)"><tspan
           x="5.0180807"
           y="8.6497364"
           fill="#ffffff"
           font-size="1.03203px"
           stroke-width="0.2458"
           id="tspan4">SCHEDULE</tspan></text>
      <g
         id="view-schedule-icon"
         transform="matrix(0.7736121,0,0,0.81252672,-16.190899,-24.8862)"
         stroke-width="0.92856">
        <rect
           x="24.176001"
           y="32.848"
           width="5.5033002"
           height="4.77"
           rx="0.47384"
           ry="0.51898003"
           fill="#ffffff"
           id="rect4" />
        <circle
           cx="29.33"
           cy="37.867001"
           r="1.5022"
           fill="#ffffff"
           stroke="#50614d"
           stroke-linejoin="round"
           stroke-miterlimit="4.1"
           stroke-width="0.27857"
           id="circle4" />
      </g>
      <g
         stroke-width="0.92856"
         id="icon-schedule-invert"
         transform="matrix(0.77361211,0,0,0.81252671,-16.190899,-24.8862)">
        <g
           fill="#53614f"
           id="g9">
          <rect
             x="24.861"
             y="34.841999"
             width="0.96227998"
             height="0.81106001"
             rx="0.19266"
             ry="0.15620001"
             id="rect5" />
          <rect
             x="26.452999"
             y="34.841999"
             width="0.96227998"
             height="0.81106001"
             rx="0.19266"
             ry="0.15620001"
             id="rect6" />
          <rect
             x="28.007999"
             y="34.841999"
             width="0.96227998"
             height="0.81106001"
             rx="0.19266"
             ry="0.15620001"
             id="rect7" />
          <rect
             x="24.861"
             y="36.174999"
             width="0.96227998"
             height="0.81106001"
             rx="0.19266"
             ry="0.15620001"
             id="rect8" />
          <rect
             x="26.452999"
             y="36.174999"
             width="0.96227998"
             height="0.81106001"
             rx="0.19266"
             ry="0.15620001"
             id="rect9" />
        </g>
        <path
           d="m 23.928,34.123 h 5.9779"
           fill="#ffffff"
           stroke="#50614d"
           stroke-linecap="round"
           stroke-linejoin="round"
           stroke-miterlimit="4.1"
           stroke-width="0.27857"
           id="path9-2" />
        <path
           d="m 29.351,36.986 v 0.8656 h 0.65668"
           fill="none"
           stroke="#50614d"
           stroke-linecap="round"
           stroke-linejoin="round"
           stroke-miterlimit="4.1"
           stroke-width="0.27857"
           id="path10-9" />
        <rect
           x="25.118"
           y="32.025002"
           width="1.1634001"
           height="1.5015"
           rx="0.40959001"
           ry="0.33855"
           fill="#53614f"
           id="rect10" />
        <rect
           x="27.601"
           y="32.025002"
           width="1.1634001"
           height="1.5015"
           rx="0.40959001"
           ry="0.33855"
           fill="#53614f"
           id="rect11" />
      </g>
      <g
         id="g1">
        <rect
           x="25.393"
           y="32.298"
           width="0.61422002"
           height="0.95576"
           rx="0.19266"
           ry="0.15620001"
           fill="#ffffff"
           id="rect12-1"
           transform="matrix(0.77361211,0,0,0.81252671,-16.190899,-24.8862)" />
        <rect
           x="27.875"
           y="32.298"
           width="0.61422002"
           height="0.95576"
           rx="0.19266"
           ry="0.15620001"
           fill="#ffffff"
           id="rect13-2"
           transform="matrix(0.77361211,0,0,0.81252671,-16.190899,-24.8862)" />
      </g>
    </g>
    <g
       id="icon-home"
       inkscape:label="icon-home">
      <rect
         id="icon-home-clickable"
         x="10.062708"
         y="0.14332104"
         width="9.8534603"
         height="9.8530188"
         fill="#f6d5ff"
         fill-opacity="0.15052"
         stroke="#d40055"
         stroke-dasharray="0.0452804, 0.18112"
         stroke-width="0.0280001"
         style="mix-blend-mode:normal;stroke-miterlimit:4.1;fill:#1c0322;fill-opacity:0.23725055" />
      <text
         x="15.256162"
         y="8.6497364"
         fill="#ffffff"
         font-family="'Devanagari Sangam MN'"
         font-size="1.03203px"
         font-weight="bold"
         letter-spacing="0.16627px"
         stroke-linecap="round"
         stroke-width="0.245799"
         text-align="center"
         text-anchor="middle"
         word-spacing="0.0094471px"
         style="line-height:1.2;mix-blend-mode:normal;stroke-miterlimit:4.1"
         xml:space="preserve"
         id="txt-home"
         transform="scale(0.97571427,1.0248902)"><tspan
           x="15.290218"
           y="8.6497364"
           fill="#ffffff"
           font-size="1.03203px"
           stroke-width="0.245799"
           id="tspan3">HOME</tspan></text>
      <path
         id="view-home-icon"
         d="m 14.890395,1.1186577 c -0.04027,0.00204 -0.07923,0.013167 -0.114633,0.034403 l -2.875283,1.7253386 c -0.141594,0.084969 -0.170197,0.2978804 -0.06383,0.4771993 l 0.02016,0.033958 c 0.106384,0.179319 0.305998,0.2552076 0.447584,0.1702384 l 0.181814,-0.1089354 h 0.02098 c -0.0059,0.030638 -0.01056,0.062157 -0.01056,0.095263 v 2.6898248 c 0,0.2151467 0.133092,0.3885513 0.29853,0.3885513 h 1.529698 V 4.7453681 h 1.365083 v 1.8791307 h 1.555047 c 0.165439,0 0.298531,-0.1734049 0.298531,-0.3885513 V 3.5461228 c 0,-0.028044 -0.0028,-0.055262 -0.0072,-0.08159 l 0.159132,0.095263 c 0.141593,0.084969 0.341203,0.00908 0.447582,-0.1702385 l 0.02016,-0.033957 C 18.269573,3.1762812 18.24138,2.9633707 18.09979,2.878401 L 15.224633,1.1530605 C 15.157463,1.1127515 15.077157,1.1089965 15,1.1349695 14.9635,1.1226875 14.92658,1.1168415 14.890403,1.1186485 Z"
         fill="#ffffff"
         stroke-linejoin="round"
         stroke-width="1.08254"
         style="stroke-miterlimit:4.1" />
    </g>
    <g
       id="icon-status"
       inkscape:label="icon-status"
       transform="matrix(0.45896803,0,0,0.45896803,-10.713702,-12.195359)">
      <rect
         id="icon-status-clickable"
         x="66.907181"
         y="26.712143"
         width="21.639544"
         height="21.811136"
         fill="#eed7f4"
         fill-opacity="0.18763"
         stroke="#d40055"
         stroke-dasharray="0.0441597, 0.176638"
         stroke-width="0.0617387"
         inkscape:label="icon-status-clickable"
         style="fill:#1c0322;fill-opacity:0.23725055" />
      <text
         id="txt-status"
         x="77.424767"
         y="45.964653"
         fill="#ffffff"
         font-family="'Devanagari Sangam MN'"
         font-size="2.167px"
         font-weight="bold"
         letter-spacing="0.16627px"
         stroke-linecap="round"
         stroke-miterlimit="4.1"
         stroke-width="0.516116"
         text-align="center"
         text-anchor="middle"
         word-spacing="0.0094471px"
         style="line-height:1.2;mix-blend-mode:normal"
         xml:space="preserve"><tspan
           x="77.496277"
           y="45.964653"
           fill="#ffffff"
           font-size="2.167px"
           stroke-width="0.516116"
           id="tspan13">STATUS</tspan></text>
      <g
         id="view-status-icon"
         transform="matrix(1.7696104,0,0,1.7696104,-59.31583,-27.665924)">
        <g
           fill="none"
           stroke="#ffffff"
           stroke-linecap="round"
           stroke-linejoin="round"
           stroke-miterlimit="4.1"
           stroke-width="0.23"
           id="g15">
          <path
             d="m 74.519,35.646 v -0.3494 h 1.7828 v 0.32913"
             id="path13"
             style="fill:none" />
          <path
             d="m 78.668,35.646 v -0.3494 h 1.7828 v 0.32913"
             id="path14"
             style="fill:none" />
          <path
             d="m 75.408,35.163 v -0.3494 h 4.1475 v 0.32913"
             id="path15"
             style="fill:none" />
        </g>
        <g
           fill="#ffffff"
           id="g18">
          <rect
             x="73.899002"
             y="35.673"
             width="1.2383"
             height="3.2112"
             rx="0"
             ry="0"
             id="rect15-5" />
          <rect
             x="75.668999"
             y="35.673"
             width="1.2383"
             height="3.2112"
             rx="0"
             ry="0"
             id="rect16-3" />
          <rect
             x="78.061996"
             y="35.673"
             width="1.2383"
             height="3.2112"
             rx="0"
             ry="0"
             id="rect17-5" />
          <rect
             x="79.832001"
             y="35.673"
             width="1.2383"
             height="3.2112"
             rx="0"
             ry="0"
             id="rect18-6" />
        </g>
        <path
           d="m 77.491,33.852 v 0.91525"
           fill="none"
           stroke="#ffffff"
           stroke-linejoin="round"
           stroke-miterlimit="4.1"
           stroke-width="0.23"
           id="path18" />
        <path
           transform="matrix(0.86369,-0.21822,0.21822,0.86369,3.6449,21.753)"
           d="m 78.613,32.883 -0.83549,0.48357 -0.0753,0.9624 -0.71808,-0.64516 -0.93856,0.22579 0.39169,-0.8823 -0.50477,-0.82285 0.96016,0.09987 0.6266,-0.73434 0.20172,0.94403 z"
           fill="#ffffff"
           id="path19" />
      </g>
    </g>
    <g
       id="icon-teammanager"
       transform="translate(4.9502692,-49.12027)">
      <rect
         id="icon-teammanager-clickable"
         x="25.134003"
         y="49.263592"
         width="9.8534603"
         height="9.8530178"
         fill="#f6d5ff"
         fill-opacity="0.15052"
         stroke="#d40055"
         stroke-dasharray="0.0452804, 0.18112"
         stroke-width="0.028"
         style="mix-blend-mode:normal;stroke-miterlimit:4.1;fill:#1c0322;fill-opacity:0.23725055" />
      <text
         x="29.269943"
         y="58.286358"
         fill="#000000"
         font-family="'Devanagari Sangam MN'"
         font-size="0.949862px"
         font-weight="bold"
         letter-spacing="0.14689px"
         stroke-linecap="round"
         stroke-miterlimit="4.1"
         stroke-width="0.256085"
         text-align="center"
         text-anchor="middle"
         word-spacing="0.0083458px"
         style="line-height:1.2;display:inline;mix-blend-mode:normal;fill:#ffffff;fill-opacity:1"
         xml:space="preserve"
         id="txt-team-manager"
         transform="scale(1.0248902,0.97571427)"><tspan
           x="29.301289"
           y="58.286358"
           id="tspan55"
           style="fill:#ffffff;fill-opacity:1;stroke-width:0.256085"><tspan
             x="29.301289"
             y="58.286358"
             fill="#000000"
             font-size="0.949862px"
             stroke-width="0.256085"
             id="tspan54"
             style="fill:#ffffff;fill-opacity:1">TEAM</tspan></tspan><tspan
           x="29.332636"
           y="59.426212"
           id="tspan56"
           style="fill:#ffffff;fill-opacity:1;stroke-width:0.256085">MANAGER</tspan></text>
      <path
         d="m 28.023162,55.634958 c -0.07898,-0.04772 -0.02896,-1.581281 0.05701,-1.74823 0.08777,-0.170444 0.231901,-0.326825 0.387631,-0.420646 0.09342,-0.05627 0.109036,-0.07673 0.09835,-0.128845 -0.01585,-0.07735 0.210152,-0.304186 0.288828,-0.289899 0.08353,0.01515 0.07381,0.114901 -0.02045,0.209728 -0.08238,0.08287 -0.08317,0.08547 -0.0214,0.07077 0.03526,-0.0084 0.205495,-0.01544 0.378304,-0.01557 0.296957,-2.65e-4 0.314171,-0.0027 0.314171,-0.04917 0,-0.03963 -0.01709,-0.04882 -0.09079,-0.04882 -0.277363,0 -0.459442,-0.260375 -0.348709,-0.498665 0.08776,-0.18888 0.153712,-0.211024 0.606207,-0.203543 0.384707,0.0063 0.384707,0.0063 0.392106,0.1918 0.0084,0.211272 0.0056,0.21542 -0.193358,0.277197 -0.219664,0.06823 -0.119512,0.13556 0.201628,0.13556 0.563585,0 0.825404,-0.307712 0.838803,-0.985931 0.01092,-0.552848 -0.02823,-0.625534 -0.336989,-0.625534 -0.179944,0 -0.222549,-0.01629 -0.222549,-0.08508 0,-0.193786 0.509337,-0.125367 0.663905,0.08918 0.160218,0.222403 0.252359,-0.07067 0.13034,-0.414579 -0.06221,-0.175353 -0.05396,-0.224341 0.0378,-0.224341 0.118092,0 0.237589,0.353376 0.20929,0.61891 -0.01276,0.11968 -0.0069,0.152834 0.03595,0.204728 0.139179,0.16845 -0.0099,0.52657 -0.242274,0.58212 -0.04949,0.01184 -0.06294,0.03859 -0.08601,0.17112 -0.04035,0.231817 -0.135069,0.406266 -0.312119,0.574814 -0.212107,0.201929 -0.217705,0.283927 -0.02012,0.294755 0.18515,0.01012 0.184681,0.0473 -0.0052,0.407864 -0.176332,0.334875 -0.168308,0.330375 -0.416541,0.234339 -0.08678,-0.03359 -0.161068,-0.06104 -0.165069,-0.06104 -0.004,0 -0.01067,0.07851 -0.01481,0.17446 -0.01348,0.31206 -0.18112,0.31206 -0.194599,0 -0.0041,-0.09595 -0.01081,-0.17446 -0.01481,-0.17446 -0.004,0 -0.07829,0.02745 -0.165069,0.06104 -0.230681,0.08924 -0.248047,0.08483 -0.338605,-0.08594 -0.06322,-0.119226 -0.07264,-0.156396 -0.04992,-0.196814 0.04221,-0.07509 0.131643,-0.0505 0.18474,0.0508 0.05073,0.09678 0.04874,0.0962 0.180945,0.05222 0.119348,-0.03968 0.117996,-0.04347 -0.06716,-0.186491 -0.149186,-0.115241 -0.149186,-0.115241 -0.512944,-0.105682 -0.723966,0.01903 -0.993246,0.266077 -1.013391,0.929694 -0.01018,0.335739 -0.01018,0.335739 0.274845,0.335739 0.285022,0 0.285022,0 0.285022,-0.104993 0,-0.153035 0.115655,-0.228371 0.178626,-0.116362 0.08471,0.150689 0.02251,1.124736 -0.07181,1.124736 -0.09375,0 -0.106814,-0.04841 -0.106814,-0.395545 0,-0.336951 0,-0.336951 -0.282113,-0.336951 -0.282113,0 -0.282113,0 -0.282113,0.336951 0,0.377287 -0.02793,0.447604 -0.148803,0.374621 z m 2.559217,-1.956113 c 0.126053,-0.237729 0.08251,-0.262143 -0.148829,-0.08345 -0.178774,0.138095 -0.164508,0.199568 0.05265,0.226877 0.01038,0.0013 0.05365,-0.06323 0.09617,-0.143426 z M 30.287685,53.47925 c 0.165233,-0.126059 0.244441,-0.27483 0.121947,-0.229042 -0.02468,0.0092 -0.111243,0.02807 -0.192351,0.04186 -0.140329,0.02387 -0.362573,0.0047 -0.487297,-0.04186 -0.130418,-0.04874 -0.0414,0.105484 0.139568,0.241798 0.209138,0.157537 0.194312,0.157989 0.418127,-0.01274 z m -0.736681,-0.526716 c 0.05186,-0.05235 0.140025,-0.106631 0.208203,-0.128187 0.251753,-0.07959 0.183174,-0.147261 -0.149255,-0.147261 -0.326077,0 -0.386479,0.02831 -0.386479,0.18135 0,0.181577 0.187507,0.235446 0.327538,0.09409 z m 1.711119,-0.958612 c 0.07006,-0.128978 0.03616,-0.220234 -0.0818,-0.220234 -0.05596,0 -0.05898,0.0088 -0.05898,0.171773 0,0.190401 0.05366,0.208866 0.140792,0.04847 z m -0.0373,3.61484 c -0.08471,-0.150684 -0.02251,-1.124731 0.07181,-1.124731 0.07317,0 0.106814,0.05153 0.106814,0.163591 0,0.104982 0,0.104982 0.284631,0.104982 0.284631,0 0.284631,0 0.275383,-0.32351 -0.01573,-0.550307 -0.226448,-0.832085 -0.690641,-0.923478 -0.208529,-0.04105 -0.27023,-0.193573 -0.07831,-0.193573 0.32045,0 0.699313,0.254146 0.868989,0.582952 0.09982,0.193421 0.128142,1.719844 0.03245,1.748761 -0.110985,0.03353 -0.128291,-0.01787 -0.128291,-0.381435 0,-0.338841 0,-0.338841 -0.282113,-0.338841 -0.282113,0 -0.282113,0 -0.282113,0.336951 0,0.347157 -0.01307,0.395544 -0.106814,0.395544 -0.0249,0 -0.05721,-0.02126 -0.07181,-0.04723 z m -1.035307,-0.701537 c -0.04424,-0.04212 -0.01505,-0.12978 0.04825,-0.144905 0.04853,-0.01159 0.08796,-0.05836 0.153243,-0.181771 0.115648,-0.218629 0.111756,-0.217643 0.374604,-0.09498 0.230679,0.107638 0.276642,0.155166 0.23011,0.237943 -0.0176,0.03132 -0.01725,0.05422 0.0011,0.07172 0.01485,0.01409 0.01931,0.04875 0.0099,0.07698 -0.01719,0.05156 -0.766151,0.08365 -0.817227,0.035 z m 0.598435,-0.186738 c 0,-0.02597 -0.14887,-0.114394 -0.192563,-0.114394 -0.0062,0 -0.02921,0.03299 -0.05108,0.07325 -0.03979,0.07324 -0.03979,0.07324 0.101927,0.07324 0.1,0 0.141715,-0.0094 0.141715,-0.03211 z M 28.3044,52.924337 c -0.01886,-0.01137 -0.0304,-0.04692 -0.02565,-0.07898 0.01173,-0.079 0.437028,-0.0925 0.45282,-0.01438 0.02029,0.100326 -0.29973,0.170266 -0.427173,0.09336 z m 0.370687,-0.366334 c -0.12724,-0.122985 -0.143017,-0.182735 -0.0612,-0.231789 0.03679,-0.02206 0.06636,-0.006 0.173114,0.09413 0.131438,0.123251 0.164549,0.214131 0.08818,0.242035 -0.06494,0.02371 -0.07065,0.02075 -0.200092,-0.104376 z m 1.811376,0.08868 c -0.0141,-0.01676 -0.03359,-0.05522 -0.04331,-0.0854 -0.0097,-0.03016 -0.04606,-0.06166 -0.08076,-0.06995 -0.08785,-0.02097 -0.124524,-0.09269 -0.07267,-0.142047 0.103375,-0.09842 0.344356,0.04603 0.344356,0.206386 0,0.102713 -0.09074,0.158666 -0.1476,0.09101 z m -1.427849,-0.276431 c -0.02217,-0.02112 -0.0403,-0.04738 -0.0403,-0.0584 0,-0.01103 -0.02796,-0.0267 -0.06214,-0.0349 -0.23625,-0.05645 -0.386076,-0.413097 -0.245181,-0.58363 0.04336,-0.05249 0.04907,-0.08416 0.03527,-0.19594 -0.0894,-0.724181 0.740846,-1.387633 1.554375,-1.242143 0.355983,0.06367 0.754432,0.287187 0.73895,0.414551 -0.01123,0.09239 -0.08403,0.09696 -0.196368,0.01231 -0.750825,-0.565695 -1.851323,-0.169808 -1.896711,0.682305 -0.01098,0.206149 0.04922,0.343078 0.09334,0.212305 0.03441,-0.101976 0.223154,-0.236486 0.356139,-0.25382 0.163492,-0.02131 0.309893,-0.150262 0.263762,-0.232323 -0.09032,-0.160666 0.077,-0.50594 0.234854,-0.484661 0.08072,0.01089 0.09836,0.127535 0.02495,0.16494 -0.16089,0.08198 -0.115587,0.285411 0.09258,0.415764 0.232852,0.145787 0.162901,0.287717 -0.08082,0.163989 -0.129143,-0.06556 -0.129143,-0.06556 -0.187193,0.0051 -0.0624,0.07591 -0.224846,0.14952 -0.329963,0.14952 -0.157082,0 -0.190666,0.08335 -0.190666,0.473268 0,0.351714 -0.0187,0.430143 -0.102586,0.430143 -0.01209,0 -0.04012,-0.01728 -0.06228,-0.03835 z m -0.0403,-0.427155 c 0,-0.172294 -9.5e-5,-0.172526 -0.06794,-0.164808 -0.13358,0.0152 -0.145086,0.161172 -0.02194,0.278404 0.087,0.08283 0.08989,0.07919 0.08989,-0.113596 z m 0.411381,0.06384 c -0.04137,-0.04745 -0.0093,-0.135462 0.04937,-0.135462 0.03624,0 0.04608,-0.01733 0.04315,-0.07599 -0.0025,-0.04932 0.01233,-0.08574 0.04215,-0.103771 0.07075,-0.04281 0.341621,0.228341 0.300754,0.301051 -0.03559,0.0633 -0.38275,0.07461 -0.435412,0.0142 z m 0.844866,-0.01421 c -0.04086,-0.07269 0.230001,-0.343811 0.30075,-0.301046 0.02981,0.01804 0.0446,0.05445 0.04215,0.103766 -0.0029,0.05867 0.0069,0.07599 0.04315,0.07599 0.05865,0 0.09073,0.08801 0.04937,0.135461 -0.05268,0.06043 -0.399848,0.04912 -0.435412,-0.0142 z m 0.09318,-0.865291 c -0.125955,-0.04276 -0.302448,-0.203578 -0.292466,-0.266523 0.0153,-0.09649 0.0889,-0.105371 0.179724,-0.02168 0.121912,0.112336 0.252915,0.157905 0.400407,0.139283 0.09311,-0.01174 0.129697,-0.0065 0.154678,0.02216 0.108434,0.124386 -0.193973,0.211068 -0.442343,0.126796 z"
         fill="#aa0000"
         stroke-width="0.774053"
         id="path53"
         style="display:inline;fill:#ffffff" />
    </g>
    <g
       id="icon-move"
       style="display:inline"
       transform="translate(-30.891417,8.016499)">
      <rect
         id="icon-move-clickable"
         x="30.943344"
         y="2.137162"
         width="9.8534613"
         height="9.8534603"
         fill="#f6d5ff"
         fill-opacity="0.15052"
         stroke="#d40055"
         stroke-dasharray="0.0452804, 0.18112"
         stroke-width="0.0280007"
         style="mix-blend-mode:normal;stroke-miterlimit:4.1;fill:#1c0322;fill-opacity:0.23725055" />
      <text
         x="35.80447"
         y="10.763562"
         fill="#000000"
         font-family="'Devanagari Sangam MN'"
         font-size="1.05771px"
         font-weight="bold"
         letter-spacing="0.14689px"
         stroke-linecap="round"
         stroke-miterlimit="4.1"
         stroke-width="0.285162"
         text-align="center"
         text-anchor="middle"
         word-spacing="0.0083458px"
         style="line-height:1.2;mix-blend-mode:normal;fill:#ffffff;stroke:none"
         xml:space="preserve"
         id="text35"><tspan
           x="35.839375"
           y="10.763562"
           fill="#000000"
           font-size="1.05771px"
           stroke-width="0.285162"
           id="tspan35"
           style="fill:#ffffff;stroke:none">MOVE</tspan></text>
      <g
         transform="matrix(0.77111367,0,0,0.77111367,1.1683223,0.99431922)"
         fill="none"
         stroke="#000000"
         stroke-linecap="round"
         stroke-miterlimit="4.1"
         stroke-width="0.8"
         id="g40"
         style="stroke:#ffffff">
        <path
           d="M 42.761,8.5187 C 42.18788,7.94558 41.8334,7.1538 41.8334,6.2793 c 0,-1.7491 1.4179,-3.167 3.167,-3.167 1.7491,1e-7 3.167,1.4179 3.167,3.167 0,1.7491 -1.4179,3.167 -3.167,3.167"
           id="path36"
           style="stroke:#ffffff" />
        <g
           stroke-linejoin="round"
           id="g39"
           style="stroke:#ffffff">
          <path
             d="m 45.861,7.1041 -1,-0.7307 V 4.4227"
             id="path37"
             style="stroke:#ffffff" />
          <path
             d="M 42.732,8.6749 43.17713,7.3415"
             id="path38"
             style="stroke:#ffffff" />
          <path
             d="M 42.699,8.6898 41.3225,8.40466"
             id="path39"
             style="stroke:#ffffff" />
        </g>
      </g>
    </g>
    <g
       id="icon-notplayed"
       style="display:inline">
      <rect
         id="icon-notplayed-clickable"
         x="40.095055"
         y="0.14332069"
         width="9.8530178"
         height="9.8530188"
         fill="#f6d5ff"
         fill-opacity="0.15052"
         stroke="#d40055"
         stroke-dasharray="0.0452804, 0.18112"
         stroke-width="0.0279995"
         style="display:inline;mix-blend-mode:normal;stroke-miterlimit:4.1;fill:#1c0322;fill-opacity:0.23725055" />
      <g
         fill="none"
         stroke="#000000"
         id="g41"
         transform="matrix(1.5652775,0,0,1.5652775,-32.620335,-1.4051695)">
        <circle
           cx="49.581688"
           cy="3.3807805"
           r="1.6011828"
           fill="none"
           stroke="#000000"
           stroke-miterlimit="4.1"
           stroke-width="0.37747"
           id="circle38"
           style="fill:none;stroke:#ffffff" />
        <path
           d="m 50.736439,2.3160266 -2.32503,2.1348786"
           stroke-linejoin="round"
           stroke-miterlimit="4.1"
           stroke-width="0.61339"
           id="path40"
           style="fill:none;stroke:#ffffff" />
      </g>
      <text
         x="47.282143"
         y="8.4709778"
         fill="#000000"
         font-family="'Devanagari Sangam MN'"
         font-size="1.00502px"
         font-weight="bold"
         letter-spacing="0.14689px"
         stroke-linecap="round"
         stroke-miterlimit="4.1"
         stroke-width="0.270958"
         text-align="center"
         text-anchor="middle"
         word-spacing="0.0083458px"
         style="line-height:1.2;mix-blend-mode:normal;fill:#ffffff"
         xml:space="preserve"
         id="text41"
         transform="scale(0.95019061,1.0524204)"><tspan
           x="47.315311"
           y="8.4709778"
           fill="#000000"
           font-size="1.00502px"
           stroke-width="0.270958"
           id="tspan41"
           style="fill:#ffffff">NOT PLAYED</tspan></text>
    </g>
  </g>
</svg>
